<svg width="68" height="68" viewBox="0 0 67 67" fill="none" xmlns="http://www.w3.org/2000/svg">
<g style="mix-blend-mode:luminosity" opacity="0.2">
<path d="M22.4683 13.0637C22.4683 13.0637 28.6449 18.8669 34.3686 15.7334C40.0923 12.5998 46.4352 13.0836 46.4352 13.0836C46.4352 13.0836 47.0271 27.8663 34.909 27.8663C19.8693 27.8663 22.4683 13.0637 22.4683 13.0637Z" fill="#9ABFDA"/>
<path d="M21.3516 53.127V61.1103H46.3845V53.3493C46.3845 53.3493 43.5433 48.5872 33.9733 48.582C25.4923 48.5776 21.3516 53.127 21.3516 53.127Z" fill="#9ABFDA"/>
<path d="M34.2626 47.4901C35.4972 47.4901 36.4979 46.4893 36.4979 45.2548C36.4979 44.0203 35.4972 43.0195 34.2626 43.0195C33.0281 43.0195 32.0273 44.0203 32.0273 45.2548C32.0273 46.4893 33.0281 47.4901 34.2626 47.4901Z" fill="#9ABFDA"/>
<path d="M37.117 37.8555C37.117 39.4311 35.8403 40.7077 34.2647 40.7077C32.6891 40.7077 31.4131 39.4311 31.4131 37.8555C31.4131 36.2799 28.3319 35.0039 34.2647 35.0039C40.1327 35.0039 37.117 36.2799 37.117 37.8555Z" fill="#9ABFDA"/>
<path d="M50.7781 66.6868C49.7561 66.6868 48.9278 65.8585 48.9278 64.8365V48.2389C48.9278 41.592 42.3464 36.1841 34.2563 36.1841H33.7844C25.6936 36.1841 19.1106 41.592 19.1106 48.2389V64.8373C19.1106 65.8592 18.2823 66.6875 17.2604 66.6875C16.2385 66.6875 15.4102 65.8592 15.4102 64.8373V48.2389C15.4102 39.5518 23.6526 32.4844 33.7836 32.4844H34.2556C44.3858 32.4844 52.6268 39.5525 52.6268 48.2389V64.8373C52.6275 65.8585 51.7993 66.6868 50.7781 66.6868Z" fill="#454B53"/>
<path d="M34.2575 34.8345H33.7856C23.6546 34.8345 15.4121 27.7664 15.4121 19.0792V2.47718C15.4121 1.45525 16.2404 0.626953 17.2623 0.626953C18.2843 0.626953 19.1126 1.45525 19.1126 2.47718V19.0785C19.1126 25.7254 25.6948 31.134 33.7863 31.134H34.2583C42.3476 31.134 48.9298 25.7254 48.9298 19.0785V2.47718C48.9298 1.45525 49.7581 0.626953 50.78 0.626953C51.8019 0.626953 52.6302 1.45525 52.6302 2.47718V19.0785C52.6288 27.7664 44.3878 34.8345 34.2575 34.8345Z" fill="#454B53"/>
<path d="M61.1502 4.32741H6.88539C5.86345 4.32741 5.03516 3.49912 5.03516 2.47718C5.03516 1.45525 5.86345 0.626953 6.88539 0.626953H61.1502C62.1722 0.626953 63.0005 1.45525 63.0005 2.47718C63.0005 3.49912 62.1714 4.32741 61.1502 4.32741Z" fill="#454B53"/>
<path d="M61.1502 66.6868H6.88539C5.86345 66.6868 5.03516 65.8585 5.03516 64.8366C5.03516 63.8146 5.86345 62.9863 6.88539 62.9863H61.1502C62.1722 62.9863 63.0005 63.8146 63.0005 64.8366C63.0005 65.8585 62.1714 66.6868 61.1502 66.6868Z" fill="#454B53"/>
</g>
</svg>