<svg width="68" height="68" viewBox="0 0 80 80" fill="none" xmlns="http://www.w3.org/2000/svg">
<path d="M57.125 44.6719H6.29688V65.5938H49.4688L57.125 44.6719ZM18 58.1563C18.4219 58.7344 19.0156 59.0156 19.75 59.0156C20.4688 59.0156 21.0312 58.8281 21.4062 58.4531C21.7812 58.0781 21.9688 57.5313 21.9688 56.8125H23.6719L23.6875 56.8594C23.7031 57.9375 23.3594 58.7969 22.6406 59.4531C21.9219 60.1094 20.9531 60.4375 19.7344 60.4375C18.5 60.4375 17.5 60.0156 16.7188 59.1875C15.9531 58.3594 15.5625 57.2812 15.5625 55.9844V53.9688C15.5625 52.6719 15.9375 51.6094 16.7031 50.7656C17.4688 49.9219 18.4531 49.5 19.6719 49.5C20.9219 49.5 21.9062 49.8125 22.625 50.4531C23.3438 51.0938 23.6875 51.9688 23.6719 53.0781L23.6562 53.125H21.9375C21.9375 52.4219 21.75 51.875 21.3594 51.5C20.9687 51.125 20.4063 50.9375 19.6719 50.9375C18.9531 50.9375 18.375 51.2188 17.9531 51.7969C17.5313 52.375 17.3281 53.0938 17.3281 53.9688V56C17.3594 56.8594 17.5781 57.5781 18 58.1563ZM32.2031 60.2812L31.3906 57.7969H27.625L26.8125 60.2812H24.9844L28.6875 49.6562H30.375L34.0469 60.2812H32.2031ZM43.8594 55.7656C43.8594 57.0938 43.4375 58.1719 42.5938 59.0156C41.75 59.8594 40.6562 60.2656 39.2969 60.2656H35.7812V49.6406H39.2969C40.6406 49.6406 41.7344 50.0625 42.5938 50.9062C43.4375 51.75 43.8594 52.8281 43.8594 54.1563V55.7656Z" fill="#D9D9D9"/>
<path d="M39.3125 51.0625H37.5781V58.8594H39.3125C40.1719 58.8594 40.8438 58.5781 41.3438 58C41.8438 57.4219 42.0937 56.6875 42.0937 55.7813V54.1563C42.0937 53.2656 41.8438 52.5313 41.3438 51.9531C40.8281 51.3594 40.1563 51.0625 39.3125 51.0625Z" fill="#D9D9D9"/>
<path d="M29.5 52.125L28.1094 56.3125H30.9063L29.5469 52.125H29.5Z" fill="#D9D9D9"/>
<path d="M55.1406 0.9375H16.7813C15.6406 0.9375 14.7031 1.875 14.7031 3.01562V43.1406H18.8594V5.09375H55.1406V19.5H69.5469V74.9062H18.8594V67.125H14.7031V76.9844C14.7031 78.125 15.6406 79.0625 16.7813 79.0625H71.625C72.7656 79.0625 73.7031 78.125 73.7031 76.9844V19.5L55.1406 0.9375Z" fill="#D9D9D9"/>
<path d="M64 26.7812H24.4062V29.8438H64V26.7812Z" fill="#D9D9D9"/>
<path d="M57.7344 32.7344H24.4062V35.7969H57.7344V32.7344Z" fill="#D9D9D9"/>
</svg>