<?xml version="1.0" encoding="UTF-8"?>
<svg width="68" height="68" id="uuid-28665f75-be83-4ff3-b5e2-f3e53c772481" data-name="Layer 1" xmlns="http://www.w3.org/2000/svg" viewBox="0 0 68 68">
  <path d="M6.4371,67.9226c-.0972-.2032-.3087-.1409-.4653-.1844-2.9996-.8339-4.8322-3.2395-4.8331-6.3981-.004-14.5726-.0018-29.1453-.0018-43.7179,0-2.2521-.0073-4.5043.0017-6.7564.015-3.766,2.7593-6.5183,6.5132-6.5405.9715-.0057,1.9433-.0115,2.9146.0051.317.0054.4955-.0577.6487-.3855C12.4062,1.3958,14.4309.106,17.2426.0881c2.6717-.017,5.3437-.0109,8.0155-.0017,2.8379.0098,4.8894,1.2857,6.0853,3.8698.1551.3351.3503.3667.6574.3746,1.3881.0357,2.7827-.1275,4.1642.1073,2.9206.4964,5.2048,3.0263,5.2312,5.9774.0514,5.7403.026,11.4813.0155,17.222-.0022,1.2237-.9759,2.1471-2.1575,2.1242-1.1742-.0228-2.0711-.9606-2.0727-2.2127-.007-5.4758-.0028-10.9516-.0034-16.4273-.0002-1.7638-.7841-2.5559-2.5284-2.5573-.9053-.0007-1.8109.0127-2.7158-.0072-.3079-.0068-.4553.0937-.5878.3773-1.2052,2.5788-3.2536,3.8568-6.0906,3.8675-2.6718.0101-5.3438.017-8.0155-.0019-2.8105-.0199-4.8342-1.3085-6.0297-3.8582-.1307-.2787-.2673-.3919-.5818-.3853-1.0153.021-2.0314-.0013-3.047.0104-1.314.0152-2.1959.8942-2.2013,2.2124-.0104,2.5612-.0032,5.1225-.0032,7.6837,0,14.1973,0,28.3946,0,42.5919,0,1.8861.7501,2.6278,2.6571,2.6278,6.8231.0002,13.6462-.0027,20.4694.002,1.7517.0012,2.8152,1.5838,2.0894,3.0634-.2926.5965-.8317.8743-1.3649,1.1745H6.4371Z" fill="#000" stroke-width="0"/>
  <path d="M48.9714,67.9226c.2208-.1926.4417-.2016.6625,0h-.6625Z" fill="#000" stroke-width="0"/>
  <path d="M47.2488,67.9226c.0883-.1723.1767-.1418.265,0h-.265Z" fill="#000" stroke-width="0"/>
  <path d="M52.0189,12.7844c0,3.4836-.0049,6.9673.0034,10.4509.0021.8958-.3382,1.5907-1.1248,2.0258-1.4209.7859-3.1048-.2433-3.1133-1.9198-.0168-3.3107-.0052-6.6216-.0054-9.9324,0-.212,0-.4239,0-.7594-.291.2747-.4851.4722-.694.6527-.8777.7583-2.1451.7102-2.9314-.1058-.7723-.8015-.8289-2.064-.0429-2.8778,1.441-1.4922,2.9089-2.9598,4.4036-4.3982.7767-.7474,1.9887-.7496,2.7685.0003,1.511,1.4531,2.9946,2.9364,4.4484,4.4467.7846.8151.7165,2.0778-.0617,2.8736-.7962.8142-2.0583.8603-2.9248.0854-.2095-.1873-.3607-.4397-.5388-.6622-.0623.0401-.1246.0802-.1869.1202Z" fill="#000" stroke-width="0"/>
  <path d="M62.6195,20.2026c0,3.2409,0,6.4818,0,9.7227,0,.3091.0085.6185-.0033.9272-.0454,1.1868-.9751,2.0954-2.1296,2.089-1.1517-.0064-2.0948-.9241-2.1006-2.115-.0163-3.3337-.0063-6.6674-.0066-10.0012,0-.2123,0-.4246,0-.7544-.2923.275-.4872.4726-.6968.6533-.8788.7573-2.1471.7068-2.9317-.1112-.7718-.8047-.8243-2.0623-.0364-2.8788,1.4255-1.4773,2.8796-2.928,4.354-4.3567.8217-.7963,2.0476-.7909,2.8727.0089,1.4583,1.4136,2.894,2.8513,4.3103,4.307.8424.8658.8043,2.1547-.0257,2.9747-.8334.8233-2.0852.8257-2.9761-.0076-.1745-.1632-.3067-.3717-.4585-.5593-.0572.0338-.1144.0676-.1716.1014Z" fill="#000" stroke-width="0"/>
  <path d="M13.8554,28.7052c-.5847-.0082-1.097-.2273-1.5227-.6532-1.0296-1.0299-2.0691-2.0501-3.0868-3.0917-.8813-.902-.8932-2.1744-.0574-3.0244.8321-.8462,2.1151-.8458,3.0257.0147.4489.4242.894.8549,1.3079,1.3125.2556.2826.4136.2672.6749-.0011,1.0777-1.1063,2.176-2.1925,3.2714-3.2815,1.0072-1.0013,2.2751-1.0687,3.1679-.176.8919.8918.8281,2.1619-.1746,3.17-1.6494,1.6583-3.31,3.3055-4.9584,4.9648-.4548.4578-.9727.7511-1.648.7658Z" fill="#000" stroke-width="0"/>
  <path d="M13.8414,41.4249c-.5485-.0132-1.0394-.1957-1.4318-.5828-1.0837-1.0693-2.1714-2.1353-3.2276-3.2315-.8361-.8677-.8033-2.1529.026-2.9751.8251-.8179,2.0909-.8212,2.9781.0089.4509.4219.8977.8518,1.3077,1.3125.2718.3054.435.3042.724.006,1.1208-1.1565,2.2652-2.2906,3.4129-3.4206.6185-.609,1.3622-.7964,2.1915-.5161.7764.2624,1.2374.824,1.3941,1.6214.1371.6977-.054,1.3284-.5465,1.8267-1.7837,1.8046-3.5815,3.5953-5.3828,5.3824-.3913.3882-.8885.5609-1.4456.5683Z" fill="#000" stroke-width="0"/>
  <path d="M21.2655,47.7768c-.0349.605-.2311,1.1259-.6598,1.5535-1.7495,1.7454-3.4852,3.5049-5.2483,5.2365-.8963.8803-2.1124.8655-3.0184-.0154-1.0599-1.0304-2.1071-2.0746-3.135-3.1369-.8446-.8729-.8351-2.1459-.0198-2.9765.8319-.8476,2.1204-.8494,3.026.0089.4483.4249.8927.8561,1.3076,1.3129.2519.2773.4095.2772.6753.0047,1.1402-1.1686,2.2936-2.3249,3.4629-3.4643.6635-.6465,1.4631-.796,2.3197-.4348.8377.3532,1.2176,1.04,1.2897,1.9115Z" fill="#000" stroke-width="0"/>
  <path d="M27.5717,28.7036c-1.3471,0-2.6943.0069-4.0413-.002-1.2959-.0085-2.2425-.9005-2.2508-2.1022-.0084-1.2106.9282-2.1278,2.2158-2.1324,2.7604-.0098,5.5209-.0096,8.2813-.0001,1.2827.0044,2.2277.9279,2.2192,2.1324-.0085,1.2019-.9546,2.0941-2.2504,2.1023-1.3912.0089-2.7825.002-4.1738.002Z" fill="#000" stroke-width="0"/>
  <path d="M25.0129,41.4208c-.5521.0007-1.1047.0167-1.6561-.0026-1.1815-.0415-2.0897-.9867-2.0771-2.1407.0123-1.1323.9016-2.057,2.0587-2.0858,1.1035-.0275,2.2088-.029,3.3121.0008,1.1475.031,2.0408.9746,2.0452,2.1014.0045,1.1288-.8809,2.0684-2.0268,2.1218-.5509.0257-1.1039.0044-1.656.0051Z" fill="#000" stroke-width="0"/>
  <path d="M24.4865,55.2005c-.3754.0008-.7513.0129-1.1262-.0015-1.1827-.0452-2.0915-.984-2.0807-2.1382.0106-1.1329.8985-2.052,2.0551-2.0906.75-.0251,1.5022-.0257,2.2521.0003,1.1483.0399,2.0426.9727,2.0489,2.0994.0062,1.1291-.8782,2.0659-2.0231,2.1266-.3744.0199-.7506.0031-1.1261.0039Z" fill="#000" stroke-width="0"/>
  <path d="M66.7051,47.4948c-1.3196-10.0141-10.7274-16.9855-20.7418-15.3702-9.4331,1.5215-16.0527,10.1552-15.04,19.616.8485,7.9271,6.5253,14.1721,14.3655,15.8268.4781.101,1.0039.038,1.43.3551h.53c.0883-.0833.1766-.0833.265,0h1.4575c.2209-.108.4417-.108.6625,0h1.0601c.06-.1705.2129-.1202.3339-.1357,9.9874-1.2747,16.9892-10.3368,15.6772-20.2921ZM51.4633,57.6566c-.4231.2409-.5399.494-.5099.9255.0244.3513.0239.7083-.0076,1.0589-.0991,1.1014-1.0573,1.9442-2.1582,1.9196-1.0692-.024-2.0997-.8891-2.0292-1.9531.0787-1.186-.2935-1.9016-1.3228-2.5158-.9686-.5779-1.1835-1.6314-.8137-2.5522.3355-.8354,1.1894-1.3745,2.0997-1.3211.5038.0296.9364.2288,1.3107.5638.4221.3779.8886.503,1.386.1683.4062-.2734.5748-.6785.4285-1.1539-.1727-.5605-.6013-.755-1.1693-.7831-2.4559-.1213-4.4487-1.7335-4.9929-4.0131-.5705-2.39.4487-4.6849,2.6664-5.9318.3022-.1699.3926-.354.3732-.6727-.0228-.3739-.0186-.7512.0005-1.1257.0586-1.1493.9872-2.0292,2.122-2.025,1.1008.0041,2.1448.8773,2.0738,1.9758-.075,1.1599.2501,1.8911,1.2926,2.46.8029.4381,1.1464,1.2785.9424,2.2263-.1766.8204-.6896,1.3698-1.506,1.6007-.7361.2083-1.397.0377-1.9727-.4586-.2762-.2381-.5687-.4199-.9533-.3749-.5218.061-.9302.511-.9388,1.0339-.009.5461.3913,1.0174.9763,1.0585.5751.0405,1.1414.0967,1.6923.2729,2.1952.702,3.6844,2.7412,3.6829,5.3784-.0794,1.6655-.9191,3.2396-2.6729,4.2383Z" fill="#000" stroke-width="0"/>
</svg>